<svg xmlns="http://www.w3.org/2000/svg" xmlns:xlink="http://www.w3.org/1999/xlink" version="1.1" x="0px" y="0px" viewBox="0 0 32 32" enable-background="new 0 0 32 32" xml:space="preserve"><g><path d="M23,20c-1.47,0-2.742,0.805-3.438,1.989l-6.943-4.312C12.857,17.165,13,16.601,13,16c0-0.411-0.08-0.8-0.196-1.173   l6.998-4.449C20.531,11.356,21.688,12,23,12c2.206,0,4-1.794,4-4s-1.794-4-4-4s-4,1.794-4,4c0,0.167,0.029,0.326,0.049,0.487   l-7.286,4.632C11.044,12.43,10.073,12,9,12c-2.206,0-4,1.794-4,4s1.794,4,4,4c0.874,0,1.677-0.29,2.335-0.767l7.666,4.761   C19.001,23.996,19,23.998,19,24c0,2.206,1.794,4,4,4s4-1.794,4-4S25.206,20,23,20z M23,6c1.103,0,2,0.897,2,2s-0.897,2-2,2   s-2-0.897-2-2S21.897,6,23,6z M7,16c0-1.103,0.897-2,2-2s2,0.897,2,2s-0.897,2-2,2S7,17.103,7,16z M23,26c-1.103,0-2-0.897-2-2   s0.897-2,2-2s2,0.897,2,2S24.103,26,23,26z"/></g><text x="0" y="47" fill="#000000" font-size="5px" font-weight="bold" font-family="'Helvetica Neue', Helvetica, Arial-Unicode, Arial, Sans-serif">Created by mim studio</text><text x="0" y="52" fill="#000000" font-size="5px" font-weight="bold" font-family="'Helvetica Neue', Helvetica, Arial-Unicode, Arial, Sans-serif">from the Noun Project</text></svg>